:SAMPLES-PER-SECOND 30
:FULLY-SPECIFIED
:DEGREES
456
root  -8.95177 38.5549 1.10671 -157.51 -80.6195 149.405
RightUpLeg  10.2915 8.4912 -11.7929
RightLeg  40.054 6.99791 6.00672
RightFoot  -5.73169 -0.576852 11.5509
RightToes  -9.31324e-010 0 -3.6325e-017
Spine  4.77297 2.00375 3.78846
Spine1  6.36252 3.50364 -7.97612
HEad  -17.9533 -15.5196 -0.400484
LeftShoulder1  -0.475353 4.69768 -33.6663
LeftArm  -4.26557 20.746 -34.7334
LeftForeArm  33.5153 -7.51494 -7.98818
LeftHand  -0.198483 10.1415 -3.34744
RightShoulder  -0.870673 -5.84936 30.5044
RightArm  29.4928 6.79951 49.785
RightForeArm  11.0439 16.4834 6.73603
RightHand  -0.066705 5.05828 -1.04697
LeftUpLeg  -12.9443 3.67795 -2.13559
LeftLeg  16.8604 -4.27506 -1.19631
LeftFoot  2.55601 -0.0142183 -0.00787491
LeftToes  8.61288e-010 -5.99147e-011 2.1039e-011
457
root  -7.59852 38.2821 0.77471 -159.671 -79.3607 151.606
RightUpLeg  12.944 9.04581 -11.596
RightLeg  35.0125 7.59965 5.45034
RightFoot  -12.4056 0.0543676 15.5574
RightToes  -9.31324e-010 0 -3.6325e-017
Spine  5.00166 2.36146 4.32955
Spine1  6.54073 4.07973 -8.23878
HEad  -19.1332 -14.6233 -0.570059
LeftShoulder1  -0.514357 4.79264 -33.751
LeftArm  -4.1727 22.151 -34.5542
LeftForeArm  34.5338 -7.39431 -7.96292
LeftHand  -0.222588 9.84181 -4.21757
RightShoulder  -0.938976 -6.00415 30.9617
RightArm  30.4489 8.13593 49.6424
RightForeArm  11.1998 16.5279 6.8054
RightHand  -0.0762875 4.48522 -1.18272
LeftUpLeg  -14.8396 3.41287 -1.23643
LeftLeg  16.4381 -2.89463 -0.664999
LeftFoot  3.64227 0.270385 -2.22278
LeftToes  8.61288e-010 -5.99147e-011 2.1039e-011
458
root  -6.12879 38.082 0.43393 -164.16 -78.4203 156.673
RightUpLeg  13.8554 8.72565 -10.5069
RightLeg  29.3113 7.99647 4.60634
RightFoot  -19.4181 0.876941 14.5624
RightToes  -9.31324e-010 0 -3.6325e-017
Spine  5.52219 2.38532 5.9788
Spine1  6.2157 4.46438 -8.81242
HEad  -20.6766 -13.6177 -0.908144
LeftShoulder1  -0.546381 4.87051 -33.8192
LeftArm  -3.84617 22.7259 -34.4946
LeftForeArm  35.5899 -7.65209 -8.00163
LeftHand  -0.21823 8.96683 -5.17357
RightShoulder  -0.959232 -6.04593 31.1447
RightArm  30.4983 9.47552 49.9453
RightForeArm  10.3563 16.3682 6.94001
RightHand  -0.0824593 4.3244 -1.26638
LeftUpLeg  -16.7865 3.41206 0.56603
LeftLeg  15.0036 -1.73597 -0.172867
LeftFoot  4.27916 0.704536 -5.31981
LeftToes  8.61288e-010 -5.99147e-011 2.1039e-011
459
root  -4.571 37.9907 0.080025 -170.907 -78.4227 163.457
RightUpLeg  13.4898 7.26159 -8.55253
RightLeg  26.2911 7.89842 4.00986
RightFoot  -22.7881 0.765868 9.07697
RightToes  -9.31324e-010 0 -3.6325e-017
Spine  7.14628 1.74009 8.24154
Spine1  5.64563 4.18445 -9.11395
HEad  -22.8755 -12.4061 -1.14298
LeftShoulder1  -0.53514 4.84562 -33.716
LeftArm  -3.24249 22.9451 -34.7948
LeftForeArm  35.95 -8.80251 -8.00164
LeftHand  -0.245867 9.02958 -5.94657
RightShoulder  -0.946381 -6.01523 31.0911
RightArm  29.6264 10.5969 50.5464
RightForeArm  10.329 16.3132 6.89424
RightHand  -0.0786124 4.55191 -1.20706
LeftUpLeg  -17.5249 4.36832 2.96467
LeftLeg  12.3488 -2.36822 -0.154778
LeftFoot  4.13728 1.01763 -7.68639
LeftToes  8.61288e-010 -5.99147e-011 2.1039e-011
460
root  -2.91885 38.0085 -0.279717 -178.334 -78.8141 170.882
RightUpLeg  11.9632 6.18516 -5.88777
RightLeg  24.894 6.87175 3.24899
RightFoot  -23.7549 0.409532 5.20924
RightToes  -9.31324e-010 0 -3.6325e-017
Spine  9.02705 0.934384 9.99448
Spine1  5.40978 3.54691 -8.83127
HEad  -25.1508 -11.3925 -1.22596
LeftShoulder1  -0.600648 4.99117 -34.2216
LeftArm  -3.28333 21.6896 -35.2436
LeftForeArm  35.7843 -9.0797 -7.96034
LeftHand  -0.230894 9.15569 -5.25292
RightShoulder  -0.906149 -5.92174 30.8645
RightArm  29.703 11.7379 50.7243
RightForeArm  9.12006 16.2356 7.00137
RightHand  -0.126387 4.56638 -1.75413
LeftUpLeg  -17.539 5.84288 5.10936
LeftLeg  8.35205 -3.82629 -0.134227
LeftFoot  1.79506 0.874468 -7.61489
LeftToes  8.61288e-010 -5.99147e-011 2.1039e-011
461
root  -1.34187 38.1258 -0.670103 178.84 -79.4169 174.326
RightUpLeg  9.15068 5.48255 -3.94415
RightLeg  24.653 5.61768 2.58867
RightFoot  -23.4965 0.130421 2.71353
RightToes  -9.31324e-010 0 -3.6325e-017
Spine  9.6325 0.484346 9.39763
Spine1  5.4595 2.65965 -6.95124
HEad  -26.7517 -10.4368 -1.20915
LeftShoulder1  -0.582 4.94266 -34.2745
LeftArm  -4.04154 20.7898 -36.6907
LeftForeArm  35.9813 -9.28119 -7.73228
LeftHand  -0.159306 8.37676 -4.17045
RightShoulder  -0.82003 -5.71782 30.4072
RightArm  30.134 12.4217 50.2843
RightForeArm  8.82062 15.6574 7.43234
RightHand  -0.171483 4.95578 -2.23627
LeftUpLeg  -17.2964 6.61781 6.16889
LeftLeg  3.22571 -3.38819 0.299157
LeftFoot  -1.14296 0.596941 -6.69994
LeftToes  8.61288e-010 -5.99147e-011 2.1039e-011
